<svg width="355" height="102" viewBox="0 0 355 102" fill="none" xmlns="http://www.w3.org/2000/svg">
<g clip-path="url(#clip0_1_15)">
<g style="mix-blend-mode:multiply">
<path d="M17.5862 40.7873L0 30.6339L53.0596 0L106.115 30.6339L53.0596 61.2679V61.2637L35.1852 50.9492L17.5862 61.1069V40.7873Z" fill="#6DBE93"/>
</g>
<g style="mix-blend-mode:multiply">
<path d="M17.5862 61.0645L0 50.9153L53.0596 20.2814V20.2856L106.115 50.9153L53.0596 81.5493V81.545L35.1852 71.2264L17.5862 81.3882V61.0645Z" fill="#CBAE78"/>
</g>
<g style="mix-blend-mode:multiply">
<path d="M17.5862 81.4264L0 71.273L53.0596 40.639L106.115 71.273L53.0596 101.903L35.1852 91.584L17.5862 101.746V81.4264Z" fill="#D26949"/>
</g>
<path d="M152.653 46.6056H138.414V24.6758H142.923V42.4697H152.653V46.6098V46.6056Z" fill="#3C3C3B"/>
<path d="M155.03 34.9902C155.492 32.4264 157.5 30.0491 162.225 30.0491C166.95 30.0491 169.328 32.3035 169.328 36.075V42.3468C169.328 43.0248 169.607 43.3977 170.192 43.3977C170.531 43.3977 170.654 43.368 170.654 43.368V46.7031C170.654 46.7031 170.315 46.8259 169.51 46.8259C167.997 46.8259 166.544 46.3937 165.836 44.8173C164.539 46.2072 162.776 46.9785 160.246 46.9785C156.322 46.9785 154.564 44.847 154.564 42.2196C154.564 39.4101 156.543 37.5879 160.865 36.8759L165.158 36.164V36.0411C165.158 34.4647 164.2 33.6638 162.225 33.6638C160.251 33.6638 159.416 34.469 159.229 35.7657L155.03 34.9944V34.9902ZM161.302 39.9949C159.509 40.3339 158.801 40.889 158.801 41.8764C158.801 42.8637 159.386 43.5757 161.242 43.5757C163.806 43.5757 165.162 42.0925 165.162 39.8677V39.2829L161.302 39.9949Z" fill="#3C3C3B"/>
<path d="M178.07 32.3968C178.812 31.0068 180.481 30.0491 182.888 30.0491C186.778 30.0491 188.851 32.6468 188.851 36.503V46.6056H184.465V36.9988C184.465 35.1131 183.659 33.8164 181.714 33.8164C179.583 33.8164 178.409 35.1767 178.409 37.3379V46.6056H174.023V30.422H178.07V32.401V32.3968Z" fill="#3C3C3B"/>
<path d="M203.924 23.4384H208.31V46.6056H204.263V44.6266C203.242 46.1098 201.419 46.9743 199.135 46.9743C194.44 46.9743 191.69 43.207 191.69 38.5117C191.69 33.8164 194.44 30.0491 199.135 30.0491C201.419 30.0491 203.089 31.0365 203.924 32.151V23.4384ZM200.063 33.9096C197.622 33.9096 196.08 35.8886 196.08 38.5117C196.08 41.1348 197.627 43.1138 200.063 43.1138C202.5 43.1138 204.047 41.1348 204.047 38.5117C204.047 35.8886 202.504 33.9096 200.063 33.9096Z" fill="#3C3C3B"/>
<path d="M223.722 39.5033C223.909 41.4484 225.176 43.0248 228.015 43.0248C230.426 43.0248 231.875 42.0968 231.875 40.4907C231.875 36.1683 220.26 39.5627 220.26 30.9772C220.26 27.2692 223.192 24.2139 228.261 24.2139C233.049 24.2139 235.888 27.1167 236.355 30.7314L231.998 31.5366C231.905 29.6211 230.545 28.2312 228.201 28.2312C226.07 28.2312 224.709 29.2821 224.709 30.7017C224.709 35.0877 236.448 31.6298 236.448 40.3381C236.448 44.2622 232.99 47.0421 227.769 47.0421C222.086 47.0421 219.768 43.7664 219.37 40.4017L223.726 39.5076L223.722 39.5033Z" fill="#3C3C3B"/>
<path d="M238.948 38.5117C238.948 33.9096 242.253 30.0491 247.444 30.0491C252.636 30.0491 255.937 33.9096 255.937 38.5117C255.937 43.1138 252.631 46.9743 247.444 46.9743C242.258 46.9743 238.948 43.1138 238.948 38.5117ZM247.444 43.1138C249.762 43.1138 251.551 41.4145 251.551 38.5117C251.551 35.6089 249.758 33.9096 247.444 33.9096C245.131 33.9096 243.334 35.6089 243.334 38.5117C243.334 41.4145 245.126 43.1138 247.444 43.1138Z" fill="#3C3C3B"/>
<path d="M258.467 25.6928C258.467 24.1461 259.577 23.0358 261.124 23.0358C262.67 23.0358 263.781 24.1461 263.781 25.6928C263.781 27.2396 262.67 28.3159 261.124 28.3159C259.577 28.3159 258.467 27.2353 258.467 25.6928ZM258.928 30.4178H263.314V46.6014H258.928V30.4178Z" fill="#3C3C3B"/>
<path d="M267.332 46.6056V23.4384H271.718V46.6056H267.332Z" fill="#3C3C3B"/>
<path d="M294.08 24.2139C299.207 24.2139 303.348 27.087 304.521 31.8417L299.885 32.7994C299.237 30.0491 297.012 28.5066 294.08 28.5066C290.062 28.5066 287.808 31.2865 287.808 35.6089C287.808 39.9313 290.062 42.7112 294.08 42.7112C297.012 42.7112 299.237 41.1687 299.885 38.4185L304.521 39.3762C303.348 44.1351 299.207 47.004 294.08 47.004C287.778 47.004 283.053 42.4654 283.053 35.6047C283.053 28.7439 287.778 24.2054 294.08 24.2054V24.2139Z" fill="#3C3C3B"/>
<path d="M316.721 34.4054C316.721 34.4054 316.26 34.3122 315.857 34.3122C313.293 34.3122 311.967 35.5792 311.967 38.5456V46.6098H307.581V30.4263H311.628V32.5281C312.217 31.5704 313.45 30.2737 316.2 30.2737C316.353 30.2737 316.726 30.3034 316.726 30.3034V34.4139L316.721 34.4054Z" fill="#3C3C3B"/>
<path d="M317.4 38.5117C317.4 33.9096 320.705 30.0491 325.896 30.0491C331.087 30.0491 334.388 33.9096 334.388 38.5117C334.388 43.1138 331.083 46.9743 325.896 46.9743C320.709 46.9743 317.4 43.1138 317.4 38.5117ZM325.896 43.1138C328.214 43.1138 330.002 41.4145 330.002 38.5117C330.002 35.6089 328.21 33.9096 325.896 33.9096C323.582 33.9096 321.786 35.6089 321.786 38.5117C321.786 41.4145 323.578 43.1138 325.896 43.1138Z" fill="#3C3C3B"/>
<path d="M341.77 53.0299H337.384V30.4178H341.431V32.3968C342.452 30.9136 344.275 30.0491 346.559 30.0491C351.254 30.0491 354.004 33.8164 354.004 38.5117C354.004 43.207 351.254 46.9743 346.559 46.9743C344.27 46.9743 342.605 45.9869 341.77 44.8724V53.0256V53.0299ZM345.631 43.1138C348.072 43.1138 349.614 41.1348 349.614 38.5117C349.614 35.8886 348.072 33.9096 345.631 33.9096C343.19 33.9096 341.647 35.8886 341.647 38.5117C341.647 41.1348 343.194 43.1138 345.631 43.1138Z" fill="#3C3C3B"/>
<path d="M155.738 77.3709H153.483V67.3023H140.664V77.3709H138.41V55.4411H140.664V65.1707H153.483V55.4411H155.738V77.3709Z" fill="#3C3C3B"/>
<path d="M170.624 61.6492H172.819V77.3709H170.718V75.0868C170.192 76.1081 168.616 77.7438 165.62 77.7438C161.73 77.7438 159.751 75.2097 159.751 71.7221V61.6535H161.946V71.2602C161.946 74.1037 163.179 75.8326 165.993 75.8326C168.527 75.8326 170.624 74.2859 170.624 70.9509V61.6535V61.6492Z" fill="#3C3C3B"/>
<path d="M185.816 61.2763C190.664 61.2763 193.262 65.1665 193.262 69.5228C193.262 73.8791 190.668 77.7396 185.816 77.7396C182.973 77.7396 180.968 76.4725 179.854 74.4681V77.3709H177.752V54.2037H179.943V64.4885C180.994 62.607 182.969 61.2763 185.812 61.2763H185.816ZM185.414 75.7648C188.935 75.7648 191.037 72.9553 191.037 69.527C191.037 66.0988 188.935 63.2553 185.414 63.2553C181.892 63.2553 179.884 66.0352 179.884 69.527C179.884 73.0189 181.892 75.7648 185.414 75.7648Z" fill="#3C3C3B"/>
<path d="M197.995 72.5231C198.182 74.502 199.542 75.8284 202.229 75.8284C204.915 75.8284 206.369 74.7478 206.369 73.1714C206.369 68.6626 196.703 72.3663 196.703 65.9123C196.703 63.5053 198.805 61.2806 202.538 61.2806C206.271 61.2806 208.005 63.535 208.437 65.5437L206.335 66.2556C206.149 64.5563 204.975 63.196 202.474 63.196C199.974 63.196 198.83 64.3995 198.83 65.8191C198.83 70.1754 208.496 66.4971 208.496 73.1079C208.496 75.4852 206.488 77.7396 202.224 77.7396C197.961 77.7396 196.139 75.4852 195.8 72.9214L197.995 72.5188V72.5231Z" fill="#3C3C3B"/>
</g>
<defs>
<clipPath id="clip0_1_15">
<rect width="355" height="102" fill="white"/>
</clipPath>
</defs>
</svg>
